<svg xmlns="http://www.w3.org/2000/svg" xmlns:xlink="http://www.w3.org/1999/xlink" contentStyleType="text/css" data-diagram-type="CLASS" height="371px" preserveAspectRatio="none" style="width:1797px;height:371px;background:#FFFFFF;" version="1.1" viewBox="0 0 1797 371" width="1797px" zoomAndPan="magnify"><defs/><g><!--cluster lsp--><g class="cluster" data-entity="lsp" data-source-line="1" data-uid="ent0002" id="cluster_lsp"><path d="M8.5,74.47 L32.6533,74.47 A3.75,3.75 0 0 1 35.1533,76.97 L42.1533,96.7669 L1305.5,96.7669 A2.5,2.5 0 0 1 1308,99.2669 L1308,361.97 A2.5,2.5 0 0 1 1305.5,364.47 L8.5,364.47 A2.5,2.5 0 0 1 6,361.97 L6,76.97 A2.5,2.5 0 0 1 8.5,74.47" fill="none" style="stroke:#000000;stroke-width:1.5;"/><line style="stroke:#000000;stroke-width:1.5;" x1="6" x2="42.1533" y1="96.7669" y2="96.7669"/><text fill="#000000" font-family="sans-serif" font-size="14" font-weight="bold" lengthAdjust="spacing" textLength="23.1533" x="10" y="89.4651">lsp</text></g><!--cluster _meta--><g class="cluster" data-entity="_meta" data-source-line="3" data-uid="ent0004" id="cluster__meta"><path d="M40.5,125.47 L88.7227,125.47 A3.75,3.75 0 0 1 91.2227,127.97 L98.2227,147.7669 L733.5,147.7669 A2.5,2.5 0 0 1 736,150.2669 L736,329.97 A2.5,2.5 0 0 1 733.5,332.47 L40.5,332.47 A2.5,2.5 0 0 1 38,329.97 L38,127.97 A2.5,2.5 0 0 1 40.5,125.47" fill="none" style="stroke:#000000;stroke-width:1.5;"/><line style="stroke:#000000;stroke-width:1.5;" x1="38" x2="98.2227" y1="147.7669" y2="147.7669"/><text fill="#000000" font-family="sans-serif" font-size="14" font-weight="bold" lengthAdjust="spacing" textLength="47.2227" x="42" y="140.4651">_meta</text></g><!--cluster buf--><g class="cluster" data-entity="buf" data-source-line="11" data-uid="ent0013" id="cluster_buf"><path d="M762.5,131.32 L789.5791,131.32 A3.75,3.75 0 0 1 792.0791,133.82 L799.0791,153.6169 L1112.5,153.6169 A2.5,2.5 0 0 1 1115,156.1169 L1115,324.12 A2.5,2.5 0 0 1 1112.5,326.62 L762.5,326.62 A2.5,2.5 0 0 1 760,324.12 L760,133.82 A2.5,2.5 0 0 1 762.5,131.32" fill="none" style="stroke:#000000;stroke-width:1.5;"/><line style="stroke:#000000;stroke-width:1.5;" x1="760" x2="799.0791" y1="153.6169" y2="153.6169"/><text fill="#000000" font-family="sans-serif" font-size="14" font-weight="bold" lengthAdjust="spacing" textLength="26.0791" x="764" y="146.3151">buf</text></g><g class="entity" data-entity="buf_attach_client" data-source-line="2" data-uid="ent0003" id="entity_buf_attach_client"><rect fill="#F1F1F1" height="36.2969" rx="2.5" ry="2.5" style="stroke:#181818;stroke-width:0.5;" width="133.8477" x="1131.08" y="166.32"/><text fill="#000000" font-family="sans-serif" font-size="14" lengthAdjust="spacing" textLength="119.8477" x="1138.08" y="181.3151">buf_attach_client</text><line style="stroke:#181818;stroke-width:0.5;" x1="1132.08" x2="1263.9277" y1="186.6169" y2="186.6169"/></g><!--class ImplementationsParams--><g class="entity" data-entity="ImplementationsParams" data-source-line="4" data-uid="ent0005" id="entity_ImplementationsParams"><rect fill="#F1F1F1" height="48" rx="2.5" ry="2.5" style="stroke:#181818;stroke-width:0.5;" width="202.748" x="390.63" y="160.47"/><ellipse cx="405.63" cy="176.47" fill="#ADD1B2" rx="11" ry="11" style="stroke:#181818;stroke-width:1;"/><path d="M405.0988,183.3919 Q403.3488,183.3919 402.2081,182.6575 Q401.0831,181.9075 400.5206,180.5638 Q399.9738,179.2044 399.9738,177.4075 Q399.9738,175.3763 400.63,173.9231 Q401.2863,172.47 402.5675,171.6888 Q403.8488,170.9075 405.7238,170.9075 Q406.6144,170.9075 407.2863,171.095 Q407.9581,171.2669 408.6456,171.6106 L407.8331,173.6263 Q407.2081,173.3138 406.6613,173.1888 Q406.13,173.0638 405.6456,173.0638 Q404.4738,173.0638 403.7706,173.595 Q403.0675,174.1263 402.7706,175.0794 Q402.4738,176.0325 402.4738,177.2981 Q402.4738,179.3138 403.1925,180.2825 Q403.9113,181.2356 405.505,181.2356 Q406.0988,181.2356 406.7238,181.0794 Q407.3488,180.9231 408.1769,180.5481 L408.1769,182.7669 Q407.4425,183.0794 406.6456,183.2356 Q405.8644,183.3919 405.0988,183.3919 Z " fill="#000000"/><text fill="#000000" font-family="sans-serif" font-size="14" lengthAdjust="spacing" textLength="170.748" x="419.63" y="181.3167">ImplementationsParams</text><line style="stroke:#181818;stroke-width:0.5;" x1="391.63" x2="592.378" y1="192.47" y2="192.47"/><line style="stroke:#181818;stroke-width:0.5;" x1="391.63" x2="592.378" y1="200.47" y2="200.47"/></g><!--class Location--><g class="entity" data-entity="Location" data-source-line="5" data-uid="ent0006" id="entity_Location"><rect fill="#F1F1F1" height="48" rx="2.5" ry="2.5" style="stroke:#181818;stroke-width:0.5;" width="91.459" x="628.27" y="160.47"/><ellipse cx="643.27" cy="176.47" fill="#ADD1B2" rx="11" ry="11" style="stroke:#181818;stroke-width:1;"/><path d="M642.7388,183.3919 Q640.9888,183.3919 639.8481,182.6575 Q638.7231,181.9075 638.1606,180.5638 Q637.6138,179.2044 637.6138,177.4075 Q637.6138,175.3763 638.27,173.9231 Q638.9263,172.47 640.2075,171.6888 Q641.4888,170.9075 643.3638,170.9075 Q644.2544,170.9075 644.9263,171.095 Q645.5981,171.2669 646.2856,171.6106 L645.4731,173.6263 Q644.8481,173.3138 644.3013,173.1888 Q643.77,173.0638 643.2856,173.0638 Q642.1138,173.0638 641.4106,173.595 Q640.7075,174.1263 640.4106,175.0794 Q640.1138,176.0325 640.1138,177.2981 Q640.1138,179.3138 640.8325,180.2825 Q641.5513,181.2356 643.145,181.2356 Q643.7388,181.2356 644.3638,181.0794 Q644.9888,180.9231 645.8169,180.5481 L645.8169,182.7669 Q645.0825,183.0794 644.2856,183.2356 Q643.5044,183.3919 642.7388,183.3919 Z " fill="#000000"/><text fill="#000000" font-family="sans-serif" font-size="14" lengthAdjust="spacing" textLength="59.459" x="657.27" y="181.3167">Location</text><line style="stroke:#181818;stroke-width:0.5;" x1="629.27" x2="718.729" y1="192.47" y2="192.47"/><line style="stroke:#181818;stroke-width:0.5;" x1="629.27" x2="718.729" y1="200.47" y2="200.47"/></g><!--class Positions--><g class="entity" data-entity="Positions" data-source-line="6" data-uid="ent0007" id="entity_Positions"><rect fill="#F1F1F1" height="48" rx="2.5" ry="2.5" style="stroke:#181818;stroke-width:0.5;" width="94.3027" x="444.85" y="268.47"/><ellipse cx="459.85" cy="284.47" fill="#ADD1B2" rx="11" ry="11" style="stroke:#181818;stroke-width:1;"/><path d="M459.3188,291.3919 Q457.5688,291.3919 456.4281,290.6575 Q455.3031,289.9075 454.7406,288.5638 Q454.1938,287.2044 454.1938,285.4075 Q454.1938,283.3763 454.85,281.9231 Q455.5063,280.47 456.7875,279.6888 Q458.0688,278.9075 459.9438,278.9075 Q460.8344,278.9075 461.5063,279.095 Q462.1781,279.2669 462.8656,279.6106 L462.0531,281.6263 Q461.4281,281.3138 460.8813,281.1888 Q460.35,281.0638 459.8656,281.0638 Q458.6938,281.0638 457.9906,281.595 Q457.2875,282.1263 456.9906,283.0794 Q456.6938,284.0325 456.6938,285.2981 Q456.6938,287.3138 457.4125,288.2825 Q458.1313,289.2356 459.725,289.2356 Q460.3188,289.2356 460.9438,289.0794 Q461.5688,288.9231 462.3969,288.5481 L462.3969,290.7669 Q461.6625,291.0794 460.8656,291.2356 Q460.0844,291.3919 459.3188,291.3919 Z " fill="#000000"/><text fill="#000000" font-family="sans-serif" font-size="14" lengthAdjust="spacing" textLength="62.3027" x="473.85" y="289.3167">Positions</text><line style="stroke:#181818;stroke-width:0.5;" x1="445.85" x2="538.1527" y1="300.47" y2="300.47"/><line style="stroke:#181818;stroke-width:0.5;" x1="445.85" x2="538.1527" y1="308.47" y2="308.47"/></g><!--class LocationOpts--><g class="entity" data-entity="LocationOpts" data-source-line="7" data-uid="ent0008" id="entity_LocationOpts"><rect fill="#F1F1F1" height="48" rx="2.5" ry="2.5" style="stroke:#181818;stroke-width:0.5;" width="124.1484" x="573.93" y="268.47"/><ellipse cx="588.93" cy="284.47" fill="#ADD1B2" rx="11" ry="11" style="stroke:#181818;stroke-width:1;"/><path d="M588.3988,291.3919 Q586.6488,291.3919 585.5081,290.6575 Q584.3831,289.9075 583.8206,288.5638 Q583.2738,287.2044 583.2738,285.4075 Q583.2738,283.3763 583.93,281.9231 Q584.5863,280.47 585.8675,279.6888 Q587.1488,278.9075 589.0238,278.9075 Q589.9144,278.9075 590.5863,279.095 Q591.2581,279.2669 591.9456,279.6106 L591.1331,281.6263 Q590.5081,281.3138 589.9613,281.1888 Q589.43,281.0638 588.9456,281.0638 Q587.7738,281.0638 587.0706,281.595 Q586.3675,282.1263 586.0706,283.0794 Q585.7738,284.0325 585.7738,285.2981 Q585.7738,287.3138 586.4925,288.2825 Q587.2113,289.2356 588.805,289.2356 Q589.3988,289.2356 590.0238,289.0794 Q590.6488,288.9231 591.4769,288.5481 L591.4769,290.7669 Q590.7425,291.0794 589.9456,291.2356 Q589.1644,291.3919 588.3988,291.3919 Z " fill="#000000"/><text fill="#000000" font-family="sans-serif" font-size="14" lengthAdjust="spacing" textLength="92.1484" x="602.93" y="289.3167">LocationOpts</text><line style="stroke:#181818;stroke-width:0.5;" x1="574.93" x2="697.0784" y1="300.47" y2="300.47"/><line style="stroke:#181818;stroke-width:0.5;" x1="574.93" x2="697.0784" y1="308.47" y2="308.47"/></g><!--class SymbolTag--><g class="entity" data-entity="SymbolTag" data-source-line="8" data-uid="ent0009" id="entity_SymbolTag"><rect fill="#F1F1F1" height="48" rx="2.5" ry="2.5" style="stroke:#181818;stroke-width:0.5;" width="110.1689" x="53.92" y="160.47"/><ellipse cx="68.92" cy="176.47" fill="#ADD1B2" rx="11" ry="11" style="stroke:#181818;stroke-width:1;"/><path d="M68.3888,183.3919 Q66.6388,183.3919 65.4981,182.6575 Q64.3731,181.9075 63.8106,180.5638 Q63.2638,179.2044 63.2638,177.4075 Q63.2638,175.3763 63.92,173.9231 Q64.5763,172.47 65.8575,171.6888 Q67.1388,170.9075 69.0138,170.9075 Q69.9044,170.9075 70.5763,171.095 Q71.2481,171.2669 71.9356,171.6106 L71.1231,173.6263 Q70.4981,173.3138 69.9513,173.1888 Q69.42,173.0638 68.9356,173.0638 Q67.7638,173.0638 67.0606,173.595 Q66.3575,174.1263 66.0606,175.0794 Q65.7638,176.0325 65.7638,177.2981 Q65.7638,179.3138 66.4825,180.2825 Q67.2013,181.2356 68.795,181.2356 Q69.3888,181.2356 70.0138,181.0794 Q70.6388,180.9231 71.4669,180.5481 L71.4669,182.7669 Q70.7325,183.0794 69.9356,183.2356 Q69.1544,183.3919 68.3888,183.3919 Z " fill="#000000"/><text fill="#000000" font-family="sans-serif" font-size="14" lengthAdjust="spacing" textLength="78.1689" x="82.92" y="181.3167">SymbolTag</text><line style="stroke:#181818;stroke-width:0.5;" x1="54.92" x2="163.0889" y1="192.47" y2="192.47"/><line style="stroke:#181818;stroke-width:0.5;" x1="54.92" x2="163.0889" y1="200.47" y2="200.47"/></g><g class="entity" data-entity="GMN10" data-source-line="9" data-uid="ent0011" id="entity_GMN10"><path d="M198.65,171.9 L198.65,180.47 L164.45,184.47 L198.65,188.47 L198.65,197.0328 A0,0 0 0 0 198.65,197.0328 L355.3438,197.0328 A0,0 0 0 0 355.3438,197.0328 L355.3438,181.9 L345.3438,171.9 L198.65,171.9 A0,0 0 0 0 198.65,171.9" fill="#FEFFDD" style="stroke:#181818;stroke-width:0.5;"/><path d="M345.3438,171.9 L345.3438,181.9 L355.3438,181.9 L345.3438,171.9" fill="#FEFFDD" style="stroke:#181818;stroke-width:0.5;"/><text fill="#000000" font-family="sans-serif" font-size="13" lengthAdjust="spacing" textLength="135.6938" x="204.65" y="188.9669">Name of the symbol,</text></g><g class="entity" data-entity="hover" data-source-line="12" data-uid="ent0014" id="entity_hover"><rect fill="#F1F1F1" height="36.2969" rx="2.5" ry="2.5" style="stroke:#181818;stroke-width:0.5;" width="54.0928" x="799.95" y="166.32"/><text fill="#000000" font-family="sans-serif" font-size="14" lengthAdjust="spacing" textLength="40.0928" x="806.95" y="181.3151">hover</text><line style="stroke:#181818;stroke-width:0.5;" x1="800.95" x2="853.0428" y1="186.6169" y2="186.6169"/></g><g class="entity" data-entity="definition" data-source-line="13" data-uid="ent0015" id="entity_definition"><rect fill="#F1F1F1" height="36.2969" rx="2.5" ry="2.5" style="stroke:#181818;stroke-width:0.5;" width="79.8984" x="889.05" y="166.32"/><text fill="#000000" font-family="sans-serif" font-size="14" lengthAdjust="spacing" textLength="65.8984" x="896.05" y="181.3151">definition</text><line style="stroke:#181818;stroke-width:0.5;" x1="890.05" x2="967.9484" y1="186.6169" y2="186.6169"/></g><g class="entity" data-entity="declaration" data-source-line="14" data-uid="ent0016" id="entity_declaration"><rect fill="#F1F1F1" height="36.2969" rx="2.5" ry="2.5" style="stroke:#181818;stroke-width:0.5;" width="92.8184" x="1003.59" y="166.32"/><text fill="#000000" font-family="sans-serif" font-size="14" lengthAdjust="spacing" textLength="78.8184" x="1010.59" y="181.3151">declaration</text><line style="stroke:#181818;stroke-width:0.5;" x1="1004.59" x2="1095.4084" y1="186.6169" y2="186.6169"/></g><g class="entity" data-entity="implementatio" data-source-line="15" data-uid="ent0017" id="entity_implementatio"><rect fill="#F1F1F1" height="36.2969" rx="2.5" ry="2.5" style="stroke:#181818;stroke-width:0.5;" width="116.0537" x="775.97" y="274.32"/><text fill="#000000" font-family="sans-serif" font-size="14" lengthAdjust="spacing" textLength="102.0537" x="782.97" y="289.3151">implementatio</text><line style="stroke:#181818;stroke-width:0.5;" x1="776.97" x2="891.0237" y1="294.6169" y2="294.6169"/></g><g class="entity" data-entity="format_hierarchy_item" data-source-line="16" data-uid="ent0018" id="entity_format_hierarchy_item"><rect fill="#F1F1F1" height="36.2969" rx="2.5" ry="2.5" style="stroke:#181818;stroke-width:0.5;" width="172.9082" x="926.55" y="274.32"/><text fill="#000000" font-family="sans-serif" font-size="14" lengthAdjust="spacing" textLength="158.9082" x="933.55" y="289.3151">format_hierarchy_item</text><line style="stroke:#181818;stroke-width:0.5;" x1="927.55" x2="1098.4582" y1="294.6169" y2="294.6169"/></g><g class="entity" data-entity="GMN19" data-source-line="20" data-uid="ent0020" id="entity_GMN19"><path d="M1335.71,171.9 L1335.71,197.0328 L1538.2974,197.0328 L1538.2974,181.9 L1528.2974,171.9 L1335.71,171.9" fill="#FEFFDD" style="stroke:#181818;stroke-width:0.5;"/><path d="M1528.2974,171.9 L1528.2974,181.9 L1538.2974,181.9 L1528.2974,171.9" fill="#FEFFDD" style="stroke:#181818;stroke-width:1;"/><text fill="#000000" font-family="sans-serif" font-size="13" lengthAdjust="spacing" textLength="181.5874" x="1341.71" y="188.9669">Creates a bunch of 'classes'</text></g><g class="entity" data-entity="GMN22" data-source-line="21" data-uid="ent0023" id="entity_GMN22"><path d="M1573.34,171.9 L1573.34,197.0328 L1790.6603,197.0328 L1790.6603,181.9 L1780.6603,171.9 L1573.34,171.9" fill="#FEFFDD" style="stroke:#181818;stroke-width:0.5;"/><path d="M1780.6603,171.9 L1780.6603,181.9 L1790.6603,181.9 L1780.6603,171.9" fill="#FEFFDD" style="stroke:#181818;stroke-width:1;"/><text fill="#000000" font-family="sans-serif" font-size="13" lengthAdjust="spacing" textLength="196.3203" x="1579.34" y="188.9669">Found in the lsp runtime / vim</text></g><!--link lsp to GMN19--><g class="link" data-entity-1="lsp" data-entity-2="GMN19" data-source-line="20" data-uid="lnk21" id="link_lsp_GMN19"><path d="M1308.0962,184.47 C1308.1863,184.47 1308.2764,184.47 1308.3665,184.47 C1308.7268,184.47 1309.0871,184.47 1309.4473,184.47 C1312.3297,184.47 1315.2119,184.47 1318.0938,184.47 C1323.8575,184.47 1329.62,184.47 1335.38,184.47" fill="none" id="lsp-GMN19" style="stroke:#181818;stroke-width:1;stroke-dasharray:7,7;"/></g><!--link lsp to GMN22--><g class="link" data-entity-1="lsp" data-entity-2="GMN22" data-source-line="21" data-uid="lnk24" id="link_lsp_GMN22"><path d="M1301.6699,96.6235 C1302.3481,94.649 1304.0565,67.4233 1304.8392,65.5075 C1311.1013,50.1813 1320.8075,36.9075 1335.5,28.47 C1374.62,6 1497.19,10.34 1538.5,28.47 C1607.24,58.64 1657.55,139.79 1675.15,171.51" fill="none" id="lsp-GMN22" style="stroke:#181818;stroke-width:1;stroke-dasharray:7,7;"/></g><!--SRC=[RP51ImCn48Nl-olcrelelLT144GBUW-pwUncT9C9oMoXbFxt9h7K83tcUn_alIIY_S6POCaHJWE0ZDzajHuVntKog8hM6Rim1IrnlEh6asBr0Uo2ESEhZmlv8g6oXBp3X3vt-PlObdHe9vcRV4VxYDhZpwCVPVd2kR4WIf1uThg5T_G4Ce4wWjoi1oZIkUjQTi1lrUiu9mTAFTZJn85lzMwqN9xmF-P-QHzCaZogSKm9atL7mqf-Q6NECFoLhdNB-sxXEH4gPS1ICLXN-QRjfRovvx_86lR0eOsj7vRMe5psFy61_GK0]--></g></svg>